# xmcd CD database file
#
# Track frame offsets:
#	150
#	26172
#	55955
#	72028
#	93808
#	119778
#	138993
#	161863
#	197095
#	222911
#	243437
#	265890
#
# Disc length: 3809 seconds
#
# Revision: 0
# Processed by: cddbd v1.5.2PL0 Copyright (c) Steve Scherf et al.
# Submitted via: CDex 1.51
#
DISCID=b40edf0c
DTITLE=Axel Hagen Quartet - As Long As There Is Music
DYEAR=2006
DGENRE=Jazz
TTITLE0=Who Cares 01
TTITLE1=Some Of These Days 02
TTITLE2=Star Crossed Lovers 03
TTITLE3=When Your Lover Has Gone 04
TTITLE4=Blame It On My Youth 05
TTITLE5=This Is New 06
TTITLE6=Segment 07
TTITLE7=Daydream 08
TTITLE8=Smooth As The Wind 09
TTITLE9=As Long As There Is Music 10
TTITLE10=Clesea Bridge 11
TTITLE11=The Scene Is Clean 12
EXTD=YEAR: 2006
EXTT0=
EXTT1=
EXTT2=
EXTT3=
EXTT4=
EXTT5=
EXTT6=
EXTT7=
EXTT8=
EXTT9=
EXTT10=
EXTT11=
PLAYORDER=
